<?xml version="1.0" encoding="UTF-8" standalone="no"?>
<!DOCTYPE svg PUBLIC "-//W3C//DTD SVG 1.1//EN" "http://www.w3.org/Graphics/SVG/1.1/DTD/svg11.dtd">
<svg width="100%" height="100%" viewBox="0 0 500 668" version="1.1" xmlns="http://www.w3.org/2000/svg" xmlns:xlink="http://www.w3.org/1999/xlink" xml:space="preserve" xmlns:serif="http://www.serif.com/" style="fill-rule:evenodd;clip-rule:evenodd;stroke-linejoin:round;stroke-miterlimit:2;">
    <g transform="matrix(1,0,0,1,-0,-1389.015003)">
        <g id="cigle-w" transform="matrix(0.638298,0,0,0.638298,250,1722.791599)">
            <g transform="matrix(1,0,0,1,-391.666667,-522.916667)">
                <g transform="matrix(4.166667,0,0,4.166667,0,0)">
                    <path d="M20,98.22C37.208,76.168 63.958,62 94,62C124.042,62 150.792,76.168 168,98.22L168,40L188,40L188,158L187.987,158C187.19,209.499 145.416,251 94,251C42.251,251 0.271,208.961 0.003,157L0,157L0,0L20,0L20,98.22ZM94,82C53.231,82 20,115.255 20,156.5C20,197.745 53.231,231 94,231C134.769,231 168,197.745 168,156.5C168,115.255 134.769,82 94,82Z" style="fill:white;fill-rule:nonzero;"/>
                </g>
            </g>
        </g>
    </g>
</svg>
