<?xml version="1.0" encoding="UTF-8" standalone="no"?>
<!DOCTYPE svg PUBLIC "-//W3C//DTD SVG 1.1//EN" "http://www.w3.org/Graphics/SVG/1.1/DTD/svg11.dtd">
<svg width="100%" height="100%" viewBox="0 0 2503 668" version="1.1" xmlns="http://www.w3.org/2000/svg" xmlns:xlink="http://www.w3.org/1999/xlink" xml:space="preserve" xmlns:serif="http://www.serif.com/" style="fill-rule:evenodd;clip-rule:evenodd;stroke-linejoin:round;stroke-miterlimit:2;">
    <g transform="matrix(1,0,0,1,-0,-2127.137818)">
        <g id="texte-w" transform="matrix(1,0,0,1,-278.012254,1691.990777)">
            <g>
                <path d="M1128.278,932.465C1106.612,932.465 1087.167,927.396 1069.945,917.257C1052.723,907.118 1039.112,893.299 1029.112,875.799C1019.112,858.299 1013.973,838.576 1013.695,816.632L1013.695,626.632C1013.695,620.243 1015.709,615.104 1019.737,611.215C1023.764,607.326 1028.834,605.382 1034.945,605.382C1041.334,605.382 1046.473,607.326 1050.362,611.215C1054.25,615.104 1056.195,620.243 1056.195,626.632L1056.195,739.132C1065.917,727.465 1077.653,718.229 1091.403,711.424C1105.153,704.618 1120.223,701.215 1136.612,701.215C1156.889,701.215 1175.084,706.285 1191.195,716.424C1207.306,726.563 1220.014,740.313 1229.32,757.674C1238.625,775.035 1243.278,794.688 1243.278,816.632C1243.278,838.576 1238.209,858.299 1228.07,875.799C1217.931,893.299 1204.25,907.118 1187.028,917.257C1169.806,927.396 1150.223,932.465 1128.278,932.465ZM1128.278,894.965C1142.445,894.965 1155.084,891.563 1166.195,884.757C1177.306,877.951 1186.125,868.576 1192.653,856.632C1199.181,844.688 1202.445,831.354 1202.445,816.632C1202.445,801.632 1199.181,788.299 1192.653,776.632C1186.125,764.965 1177.306,755.729 1166.195,748.924C1155.084,742.118 1142.445,738.715 1128.278,738.715C1114.389,738.715 1101.82,742.118 1090.57,748.924C1079.32,755.729 1070.5,764.965 1064.112,776.632C1057.723,788.299 1054.528,801.632 1054.528,816.632C1054.528,831.354 1057.723,844.688 1064.112,856.632C1070.5,868.576 1079.32,877.951 1090.57,884.757C1101.82,891.563 1114.389,894.965 1128.278,894.965Z" style="fill:white;fill-rule:nonzero;"/>
                <path d="M1413.695,932.465C1390.639,932.465 1370.153,927.535 1352.237,917.674C1334.32,907.813 1320.292,894.201 1310.153,876.84C1300.014,859.479 1294.945,839.549 1294.945,817.049C1294.945,794.271 1299.737,774.201 1309.32,756.84C1318.903,739.479 1332.167,725.868 1349.112,716.007C1366.056,706.146 1385.5,701.215 1407.445,701.215C1429.112,701.215 1447.723,706.007 1463.278,715.59C1478.834,725.174 1490.709,738.368 1498.903,755.174C1507.098,771.979 1511.195,791.354 1511.195,813.299C1511.195,818.576 1509.389,822.951 1505.778,826.424C1502.167,829.896 1497.584,831.632 1492.028,831.632L1324.112,831.632L1324.112,798.299L1490.778,798.299L1473.695,809.965C1473.417,796.076 1470.639,783.646 1465.362,772.674C1460.084,761.701 1452.584,753.021 1442.862,746.632C1433.139,740.243 1421.334,737.049 1407.445,737.049C1391.612,737.049 1378.07,740.521 1366.82,747.465C1355.57,754.41 1347.028,763.924 1341.195,776.007C1335.362,788.09 1332.445,801.771 1332.445,817.049C1332.445,832.326 1335.917,845.938 1342.862,857.882C1349.806,869.826 1359.389,879.271 1371.612,886.215C1383.834,893.16 1397.862,896.632 1413.695,896.632C1422.306,896.632 1431.125,895.035 1440.153,891.84C1449.181,888.646 1456.473,884.965 1462.028,880.799C1466.195,877.743 1470.709,876.146 1475.57,876.007C1480.431,875.868 1484.667,877.326 1488.278,880.382C1493,884.549 1495.5,889.132 1495.778,894.132C1496.056,899.132 1493.834,903.438 1489.112,907.049C1479.667,914.549 1467.931,920.66 1453.903,925.382C1439.875,930.104 1426.473,932.465 1413.695,932.465Z" style="fill:white;fill-rule:nonzero;"/>
                <path d="M1757.862,931.215C1751.75,931.215 1746.681,929.201 1742.653,925.174C1738.625,921.146 1736.612,916.076 1736.612,909.965L1736.612,807.465C1736.612,791.632 1733.695,778.715 1727.862,768.715C1722.028,758.715 1714.181,751.285 1704.32,746.424C1694.459,741.563 1683.139,739.132 1670.362,739.132C1658.695,739.132 1648.139,741.493 1638.695,746.215C1629.25,750.938 1621.75,757.257 1616.195,765.174C1610.639,773.09 1607.862,782.188 1607.862,792.465L1581.612,792.465C1581.612,774.965 1585.848,759.34 1594.32,745.59C1602.792,731.84 1614.389,720.938 1629.112,712.882C1643.834,704.826 1660.362,700.799 1678.695,700.799C1697.862,700.799 1715.014,704.896 1730.153,713.09C1745.292,721.285 1757.237,733.299 1765.987,749.132C1774.737,764.965 1779.112,784.41 1779.112,807.465L1779.112,909.965C1779.112,916.076 1777.098,921.146 1773.07,925.174C1769.042,929.201 1763.973,931.215 1757.862,931.215ZM1586.612,931.215C1580.5,931.215 1575.431,929.201 1571.403,925.174C1567.375,921.146 1565.362,916.076 1565.362,909.965L1565.362,724.132C1565.362,717.743 1567.375,712.604 1571.403,708.715C1575.431,704.826 1580.5,702.882 1586.612,702.882C1593,702.882 1598.139,704.826 1602.028,708.715C1605.917,712.604 1607.862,717.743 1607.862,724.132L1607.862,909.965C1607.862,916.076 1605.917,921.146 1602.028,925.174C1598.139,929.201 1593,931.215 1586.612,931.215Z" style="fill:white;fill-rule:nonzero;"/>
                <path d="M1952.862,932.465C1931.195,932.465 1911.681,927.396 1894.32,917.257C1876.959,907.118 1863.209,893.299 1853.07,875.799C1842.931,858.299 1837.862,838.576 1837.862,816.632C1837.862,794.688 1842.514,775.035 1851.82,757.674C1861.125,740.313 1873.834,726.563 1889.945,716.424C1906.056,706.285 1924.25,701.215 1944.528,701.215C1960.917,701.215 1976.056,704.618 1989.945,711.424C2003.834,718.229 2015.5,727.465 2024.945,739.132L2024.945,626.632C2024.945,620.243 2026.959,615.104 2030.987,611.215C2035.014,607.326 2040.084,605.382 2046.195,605.382C2052.584,605.382 2057.723,607.326 2061.612,611.215C2065.5,615.104 2067.445,620.243 2067.445,626.632L2067.445,816.632C2067.445,838.576 2062.375,858.299 2052.237,875.799C2042.098,893.299 2028.417,907.118 2011.195,917.257C1993.973,927.396 1974.528,932.465 1952.862,932.465ZM1952.862,894.965C1967.028,894.965 1979.667,891.563 1990.778,884.757C2001.889,877.951 2010.639,868.576 2017.028,856.632C2023.417,844.688 2026.612,831.354 2026.612,816.632C2026.612,801.632 2023.417,788.299 2017.028,776.632C2010.639,764.965 2001.889,755.729 1990.778,748.924C1979.667,742.118 1967.028,738.715 1952.862,738.715C1938.973,738.715 1926.403,742.118 1915.153,748.924C1903.903,755.729 1895.014,764.965 1888.487,776.632C1881.959,788.299 1878.695,801.632 1878.695,816.632C1878.695,831.354 1881.959,844.688 1888.487,856.632C1895.014,868.576 1903.903,877.951 1915.153,884.757C1926.403,891.563 1938.973,894.965 1952.862,894.965Z" style="fill:white;fill-rule:nonzero;"/>
                <path d="M2162.862,788.299C2162.862,771.632 2166.959,756.701 2175.153,743.507C2183.348,730.313 2194.389,719.826 2208.278,712.049C2222.167,704.271 2237.445,700.382 2254.112,700.382C2270.778,700.382 2283.209,703.09 2291.403,708.507C2299.598,713.924 2302.723,720.382 2300.778,727.882C2299.945,731.771 2298.348,734.757 2295.987,736.84C2293.625,738.924 2290.917,740.243 2287.862,740.799C2284.806,741.354 2281.473,741.215 2277.862,740.382C2260.084,736.771 2244.112,736.493 2229.945,739.549C2215.778,742.604 2204.598,748.299 2196.403,756.632C2188.209,764.965 2184.112,775.521 2184.112,788.299L2162.862,788.299ZM2163.278,930.799C2156.612,930.799 2151.473,929.063 2147.862,925.59C2144.25,922.118 2142.445,916.91 2142.445,909.965L2142.445,723.715C2142.445,717.049 2144.25,711.91 2147.862,708.299C2151.473,704.688 2156.612,702.882 2163.278,702.882C2170.223,702.882 2175.431,704.618 2178.903,708.09C2182.375,711.563 2184.112,716.771 2184.112,723.715L2184.112,909.965C2184.112,916.632 2182.375,921.771 2178.903,925.382C2175.431,928.993 2170.223,930.799 2163.278,930.799Z" style="fill:white;fill-rule:nonzero;"/>
                <path d="M2431.612,932.465C2409.112,932.465 2389.244,927.517 2372.009,917.622C2354.774,907.721 2341.232,894.11 2331.384,876.788C2321.536,859.462 2316.612,839.549 2316.612,817.049C2316.612,794.271 2321.536,774.221 2331.384,756.899C2341.232,739.573 2354.774,725.961 2372.009,716.066C2389.244,706.165 2409.042,701.215 2431.403,701.215C2453.764,701.215 2473.537,706.165 2490.72,716.066C2507.907,725.961 2521.449,739.573 2531.345,756.899C2541.245,774.221 2546.195,794.271 2546.195,817.049C2546.195,839.549 2541.334,859.479 2531.612,876.84C2521.889,894.201 2508.417,907.813 2491.195,917.674C2473.973,927.535 2454.112,932.465 2431.612,932.465ZM2431.612,894.965C2446.056,894.965 2458.823,891.621 2469.912,884.933C2481.006,878.244 2489.687,869.078 2495.954,857.433C2502.226,845.788 2505.362,832.326 2505.362,817.049C2505.362,801.771 2502.226,788.244 2495.954,776.469C2489.687,764.69 2481.006,755.454 2469.912,748.761C2458.823,742.064 2446.056,738.715 2431.612,738.715C2417.167,738.715 2404.394,742.064 2393.291,748.761C2382.189,755.454 2373.439,764.69 2367.041,776.469C2360.644,788.244 2357.445,801.771 2357.445,817.049C2357.445,832.326 2360.644,845.788 2367.041,857.433C2373.439,869.078 2382.189,878.244 2393.291,884.933C2404.394,891.621 2417.167,894.965 2431.612,894.965Z" style="fill:white;fill-rule:nonzero;"/>
                <path d="M2631.195,922.882L2602.862,897.882L2744.528,710.799L2772.445,735.799L2631.195,922.882ZM2618.695,930.799C2605.639,930.799 2599.112,924.271 2599.112,911.215C2599.112,898.16 2605.639,891.632 2618.695,891.632L2760.778,891.632C2773.834,891.632 2780.362,898.16 2780.362,911.215C2780.362,924.271 2773.834,930.799 2760.778,930.799L2618.695,930.799ZM2614.528,742.049C2601.473,742.049 2594.945,735.521 2594.945,722.465C2594.945,709.41 2601.473,702.882 2614.528,702.882L2756.612,702.882C2769.667,702.882 2776.195,709.41 2776.195,722.465C2776.195,735.521 2769.667,742.049 2756.612,742.049L2614.528,742.049Z" style="fill:white;fill-rule:nonzero;"/>
                <g id="cigle-w" transform="matrix(0.638298,0,0,0.638298,528.012254,768.923637)">
                    <g transform="matrix(1,0,0,1,-391.666667,-522.916667)">
                        <g transform="matrix(4.166667,0,0,4.166667,0,0)">
                            <path d="M20,98.22C37.208,76.168 63.958,62 94,62C124.042,62 150.792,76.168 168,98.22L168,40L188,40L188,158L187.987,158C187.19,209.499 145.416,251 94,251C42.251,251 0.271,208.961 0.003,157L0,157L0,0L20,0L20,98.22ZM94,82C53.231,82 20,115.255 20,156.5C20,197.745 53.231,231 94,231C134.769,231 168,197.745 168,156.5C168,115.255 134.769,82 94,82Z" style="fill:white;fill-rule:nonzero;"/>
                        </g>
                    </g>
                </g>
            </g>
        </g>
    </g>
</svg>
